<?xml version="1.0" encoding="UTF-8"?>
<svg version="1.1" xmlns="http://www.w3.org/2000/svg" width="1080" height="1080">
<path d="M0 0 C3.78355813 0.00420115 7.56709734 -0.00324898 11.35065074 -0.00915251 C17.9710237 -0.01788669 24.59136572 -0.01923655 31.21174301 -0.01564924 C41.05695055 -0.01032867 50.90212829 -0.01645115 60.74733259 -0.02473217 C79.3565479 -0.03995507 97.96574957 -0.04167898 116.5749698 -0.03920914 C130.94801297 -0.03737487 145.32105169 -0.0391389 159.69409431 -0.04343358 C161.76072109 -0.04403599 163.82734787 -0.04463719 165.89397464 -0.04523719 C169.00838024 -0.04614446 172.12278584 -0.04705313 175.23719143 -0.04796954 C204.18572959 -0.05639659 233.13426607 -0.06073649 262.08280528 -0.05656282 C263.17362727 -0.05640644 264.26444925 -0.05625007 265.38832645 -0.05608895 C270.91675127 -0.0552832 276.44517608 -0.05443742 281.9736009 -0.05357565 C283.62047536 -0.05331902 283.62047536 -0.05331902 285.30062001 -0.0530572 C287.52087256 -0.05271054 289.7411251 -0.05236201 291.96137764 -0.05201161 C326.5036276 -0.04665517 361.04585203 -0.05458366 395.58809722 -0.07304517 C434.41837459 -0.09377428 473.24863615 -0.10448612 512.07891936 -0.10046969 C516.22156923 -0.10007435 520.3642191 -0.0997128 524.50686897 -0.0993723 C525.52685436 -0.09928157 526.54683975 -0.09919084 527.59773378 -0.09909736 C542.97646783 -0.09793276 558.35518588 -0.10456921 573.73391593 -0.11518422 C591.23040116 -0.12724886 608.7268512 -0.12878064 626.22333697 -0.11639406 C636.00620149 -0.10977773 645.78898182 -0.11136816 655.57183956 -0.12498257 C662.11782051 -0.13325468 668.66373869 -0.13049383 675.20971458 -0.1190073 C678.9318571 -0.11277813 682.65383589 -0.11107874 686.37596867 -0.12287064 C706.34043554 -0.1818448 725.46699186 0.75308518 744.74752105 6.32563647 C745.78457183 6.62236254 746.82162261 6.91908862 747.89009918 7.22480639 C776.3115663 15.69824713 802.07326315 30.69965054 823.43502105 51.26313647 C823.99012359 51.78714038 824.54522613 52.31114428 825.11714996 52.85102709 C851.02886259 77.39244188 868.95857072 108.88185225 877.74752105 143.45063647 C878.11127838 144.87376147 878.11127838 144.87376147 878.48238433 146.32563647 C882.63122018 163.47220329 882.72795814 180.28105077 882.69815752 197.82811542 C882.69395637 201.61167355 882.70140651 205.39521276 882.70731003 209.17876615 C882.71604421 215.79913912 882.71739408 222.41948114 882.71380676 229.03985842 C882.70848619 238.88506597 882.71460867 248.73024371 882.72288969 258.57544801 C882.73811259 277.18466331 882.7398365 295.79386499 882.73736666 314.40308522 C882.7355324 328.77612839 882.73729642 343.14916711 882.7415911 357.52220973 C882.74219351 359.58883651 882.74279471 361.65546328 882.74339471 363.72209006 C882.74430198 366.83649566 882.74521065 369.95090126 882.74612706 373.06530685 C882.75455411 402.01384501 882.75889401 430.96238149 882.75472034 459.9109207 C882.75456396 461.00174269 882.75440759 462.09256467 882.75424647 463.21644187 C882.75344072 468.74486669 882.75259495 474.2732915 882.75173317 479.80171631 C882.75156208 480.89963262 882.75139099 481.99754893 882.75121472 483.12873543 C882.75086807 485.34898798 882.75051954 487.56924052 882.75016914 489.78949306 C882.74481269 524.33174302 882.75274118 558.87396745 882.77120269 593.41621264 C882.79193181 632.24649001 882.80264364 671.07675157 882.79862721 709.90703478 C882.79823188 714.04968464 882.79787033 718.19233451 882.79752983 722.33498439 C882.79739373 723.86496247 882.79739373 723.86496247 882.79725488 725.4258492 C882.79609029 740.80458325 882.80272673 756.1833013 882.81334175 771.56203135 C882.82540638 789.05851658 882.82693817 806.55496662 882.81455158 824.05145238 C882.80793525 833.83431691 882.80952568 843.61709724 882.82314009 853.39995498 C882.8314122 859.94593593 882.82865135 866.49185411 882.81716483 873.03783 C882.81093565 876.75997252 882.80923626 880.48195131 882.82102816 884.20408408 C882.88000232 904.16855096 881.94507235 923.29510728 876.37252105 942.57563647 C876.07579498 943.61268725 875.7790689 944.64973803 875.47335113 945.71821459 C866.99991039 974.13968171 851.99850698 999.90137857 831.43502105 1021.26313647 C830.91101714 1021.81823901 830.38701324 1022.37334155 829.84713043 1022.94526538 C805.30571564 1048.85697801 773.81630528 1066.78668614 739.24752105 1075.57563647 C737.82439605 1075.93939379 737.82439605 1075.93939379 736.37252105 1076.31049975 C719.22595423 1080.4593356 702.41710675 1080.55607356 684.8700421 1080.52627294 C681.08648397 1080.52207179 677.30294477 1080.52952192 673.51939137 1080.53542545 C666.8990184 1080.54415963 660.27867638 1080.54550949 653.6582991 1080.54192218 C643.81309155 1080.53660161 633.96791382 1080.54272409 624.12270951 1080.55100511 C605.51349421 1080.56622801 586.90429253 1080.56795192 568.2950723 1080.56548208 C553.92202913 1080.56364781 539.54899041 1080.56541184 525.17594779 1080.56970652 C523.10932102 1080.57030893 521.04269424 1080.57091013 518.97606746 1080.57151013 C515.86166186 1080.5724174 512.74725626 1080.57332607 509.63285067 1080.57424248 C480.68431251 1080.58266953 451.73577603 1080.58700943 422.78723682 1080.58283576 C421.69641483 1080.58267938 420.60559285 1080.58252301 419.48171566 1080.58236189 C413.95329083 1080.58155614 408.42486602 1080.58071036 402.89644121 1080.57984859 C401.24956674 1080.57959196 401.24956674 1080.57959196 399.56942209 1080.57933014 C397.34916955 1080.57898348 395.128917 1080.57863495 392.90866446 1080.57828455 C358.3664145 1080.57292811 323.82419007 1080.5808566 289.28194488 1080.59931811 C250.45166751 1080.62004722 211.62140595 1080.63075906 172.79112274 1080.62674262 C168.64847288 1080.62634729 164.50582301 1080.62598574 160.36317314 1080.62564524 C158.83319505 1080.62550915 158.83319505 1080.62550915 157.27230832 1080.6253703 C141.89357427 1080.6242057 126.51485622 1080.63084215 111.13612617 1080.64145716 C93.63964094 1080.6535218 76.1431909 1080.65505358 58.64670514 1080.642667 C48.86384061 1080.63605067 39.08106028 1080.6376411 29.29820254 1080.65125551 C22.75222159 1080.65952762 16.20630342 1080.65676677 9.66032752 1080.64528024 C5.938185 1080.63905106 2.21620621 1080.63735168 -1.50592656 1080.64914358 C-21.47039344 1080.70811774 -40.59694976 1079.77318776 -59.87747895 1074.20063647 C-60.91452973 1073.9039104 -61.95158051 1073.60718432 -63.02005707 1073.30146655 C-91.44152419 1064.82802581 -117.20322105 1049.8266224 -138.56497895 1029.26313647 C-139.12008149 1028.73913256 -139.67518403 1028.21512866 -140.24710786 1027.67524584 C-166.15882049 1003.13383106 -184.08852862 971.64442069 -192.87747895 937.07563647 C-193.24123627 935.65251147 -193.24123627 935.65251147 -193.61234223 934.20063647 C-197.76117808 917.05406965 -197.85791604 900.24522217 -197.82811542 882.69815752 C-197.82391427 878.91459939 -197.8313644 875.13106018 -197.83726793 871.34750678 C-197.84600211 864.72713382 -197.84735197 858.1067918 -197.84376465 851.48641452 C-197.83844409 841.64120697 -197.84456657 831.79602923 -197.85284759 821.95082493 C-197.86807049 803.34160962 -197.8697944 784.73240795 -197.86732456 766.12318772 C-197.86549029 751.75014455 -197.86725431 737.37710583 -197.871549 723.00406321 C-197.87215141 720.93743643 -197.87275261 718.87080966 -197.8733526 716.80418288 C-197.87425988 713.68977728 -197.87516855 710.57537168 -197.87608496 707.46096609 C-197.88451201 678.51242793 -197.88885191 649.56389145 -197.88467824 620.61535224 C-197.88452186 619.52453025 -197.88436548 618.43370827 -197.88420437 617.30983107 C-197.88339861 611.78140625 -197.88255284 606.25298144 -197.88169107 600.72455663 C-197.88151998 599.62664032 -197.88134889 598.52872401 -197.88117262 597.39753751 C-197.88082596 595.17728496 -197.88047743 592.95703242 -197.88012703 590.73677988 C-197.87477059 556.19452992 -197.88269908 521.65230549 -197.90116059 487.1100603 C-197.9218897 448.27978293 -197.93260154 409.44952137 -197.9285851 370.61923816 C-197.92818977 366.47658829 -197.92782822 362.33393843 -197.92748772 358.19128855 C-197.92739699 357.17130316 -197.92730626 356.15131777 -197.92721278 355.10042374 C-197.92604818 339.72168969 -197.93268463 324.34297164 -197.94329964 308.96424159 C-197.95536428 291.46775636 -197.95689606 273.97130632 -197.94450948 256.47482056 C-197.93789315 246.69195603 -197.93948357 236.9091757 -197.95309799 227.12631796 C-197.9613701 220.58033701 -197.95860925 214.03441883 -197.94712272 207.48844294 C-197.94089354 203.76630042 -197.93919416 200.04432163 -197.95098606 196.32218886 C-198.00996022 176.35772198 -197.07503024 157.23116566 -191.50247895 137.95063647 C-191.20575287 136.91358569 -190.9090268 135.87653491 -190.60330903 134.80805834 C-182.12986829 106.38659123 -167.12846488 80.62489437 -146.56497895 59.26313647 C-146.04097504 58.70803393 -145.51697114 58.15293139 -144.97708832 57.58100756 C-120.43567354 31.66929493 -88.94626317 13.7395868 -54.37747895 4.95063647 C-53.42872895 4.70813159 -52.47997895 4.4656267 -51.50247895 4.21577319 C-34.35591213 0.06693734 -17.54706465 -0.02980062 0 0 Z " fill="#2563EB" transform="translate(197.5649789487943,-0.26313646975904703)"/>
<path d="M0 0 C12.36204083 7.62297743 20.69737245 19.37578352 29 31 C29.48581543 31.67836914 29.97163086 32.35673828 30.47216797 33.05566406 C34.01421313 38.01429059 37.51002714 43.00465399 41 48 C42.12476733 49.60563176 43.24977363 51.21109615 44.375 52.81640625 C47.32502052 57.02646081 50.27186029 61.23873084 53.21777344 65.45166016 C56.14376733 69.6354306 59.0719831 73.81764524 62 78 C63.16667759 79.66665902 64.33334425 81.33332569 65.5 83 C66.36625 84.2375 66.36625 84.2375 67.25 85.5 C73.66666667 94.66666667 80.08333333 103.83333333 86.5 113 C87.3660083 114.23713745 87.3660083 114.23713745 88.24951172 115.49926758 C89.41784967 117.16834507 90.58614384 118.83745322 91.75439453 120.5065918 C94.64513489 124.63662338 97.53659854 128.76614446 100.4296875 132.89453125 C107.31879526 142.72716687 114.18625662 152.574551 121.03857422 162.43286133 C125.34746142 168.63007026 129.66820467 174.8187852 134 181 C139.69853797 189.13147541 145.371884 197.28023925 151.0390625 205.43359375 C155.34781242 211.63054102 159.66841541 217.81899563 164 224 C171.01329203 234.0088641 177.99236829 244.04136838 184.96777344 254.07666016 C188.31061054 258.88530161 191.65536978 263.69260565 195 268.5 C199.02441327 274.28447849 203.04839014 280.06925797 207.0703125 285.85546875 C213.36696742 294.91296467 219.66994001 303.96581047 226 313 C236.42634662 327.88371778 246.82748892 342.78383096 257.06665039 357.79711914 C261.34123712 364.05701539 265.66525019 370.28164922 270 376.5 C275.39283286 384.23620805 280.74793482 391.99610975 286.05981445 399.78808594 C291.01885005 407.05206844 296.04686775 414.26751975 301.09375 421.47070312 C305.08000672 427.17773526 308.97392573 432.94093459 312.82289124 438.74102783 C316.5205642 444.30344972 320.27634448 449.82518378 324.0390625 455.34375 C325.92833133 458.1218278 327.81681518 460.90043765 329.70507812 463.67919922 C330.98616076 465.56140023 332.2696959 467.4419343 333.55566406 469.32080078 C354.87275992 500.48364224 354.87275992 500.48364224 354 510 C351.55683243 514.07194594 349.43376249 515.54893778 345 517 C342.34656883 517.4557928 339.76023122 517.82715032 337.08889771 518.11080933 C335.91090817 518.23727225 335.91090817 518.23727225 334.70912087 518.36628997 C324.67820469 519.34447731 314.6458019 519.26395434 304.57763672 519.22705078 C302.38781744 519.22648522 300.19799778 519.22680605 298.00817871 519.22793579 C292.12096858 519.22850465 286.23384158 519.21682668 280.3466506 519.20278788 C274.17276536 519.19020195 267.99887778 519.18910386 261.82498169 519.18673706 C250.15954333 519.18054524 238.4941429 519.16416581 226.82872117 519.14403808 C213.53714516 519.12160718 200.24557367 519.11066764 186.95398307 519.10064721 C159.63596777 519.07979732 132.31798602 519.04466646 105 519 C105.14209669 521.6877438 105.2885723 524.37513302 105.4375 527.0625 C105.47681641 527.81466797 105.51613281 528.56683594 105.55664062 529.34179688 C105.81558389 533.94301943 106.29815012 538.44026734 107 543 C107.12024079 544.57893506 107.21682445 546.15999184 107.28125 547.7421875 C107.31863281 548.58136719 107.35601563 549.42054688 107.39453125 550.28515625 C107.44673828 551.56712891 107.44673828 551.56712891 107.5 552.875 C107.73385127 558.56538097 108.10168054 564.18107196 108.77246094 569.83691406 C109.06043322 572.57450469 109.18357216 575.30197825 109.28303528 578.05200195 C109.64641429 587.47778942 110.39631395 596.84662113 111.26171875 606.23828125 C113.31279253 628.91158858 115.06772776 651.60914225 116.85180664 674.3046875 C117.3349198 680.45034562 117.82057162 686.59579983 118.30698395 692.74119759 C121.55468195 733.79229166 124.72422635 774.85182806 127.5625 815.93359375 C127.86174569 820.19992288 128.20204046 824.46107469 128.5625 828.72265625 C129.57790425 841.05405155 130.2160011 853.34465547 130.29754639 865.71621704 C130.307433 867.1848225 130.32188151 868.65340507 130.34112549 870.12191772 C130.36483666 872.17405208 130.36743669 874.22509825 130.36328125 876.27734375 C130.36775269 878.04452759 130.36775269 878.04452759 130.37231445 879.84741211 C129.95801587 883.35550231 129.11648793 885.19694934 127 888 C123.33584186 890.4427721 121.14938841 890.7306526 116.8125 890.6171875 C106.12934447 888.27282837 98.94139616 876.44047769 93 868 C92.13979248 866.78086914 92.13979248 866.78086914 91.26220703 865.53710938 C87.17484683 859.72557623 83.13059492 853.8848441 79.09667969 848.03613281 C75.7442617 843.18160673 72.3714431 838.34132269 69 833.5 C67.66656167 831.58340638 66.3332285 829.66673959 65 827.75 C64.34 826.80125 63.68 825.8525 63 824.875 C41.00000001 793.25000001 41.00000001 793.25000001 38.99951172 790.37426758 C37.66784415 788.46001577 36.3361385 786.54579046 35.00439453 784.6315918 C31.64526025 779.80319568 28.28681497 774.97432293 24.9296875 770.14453125 C18.63303296 761.08703587 12.33017898 752.03410575 6 743 C-1.0132238 732.99108783 -7.99236806 722.95863195 -14.96777344 712.92333984 C-18.31061055 708.11469838 -21.65539381 703.30741108 -25 698.5 C-26.33334287 696.58333997 -27.6666762 694.6666733 -29 692.75 C-29.99 691.326875 -29.99 691.326875 -31 689.875 C-69.00000001 635.24999999 -69.00000001 635.24999999 -71.00048828 632.37426758 C-72.33215585 630.46001577 -73.6638615 628.54579046 -74.99560547 626.6315918 C-78.35473975 621.80319568 -81.71318503 616.97432293 -85.0703125 612.14453125 C-91.93438905 602.27082113 -98.81020028 592.40564431 -105.71142578 582.55786133 C-110.83792174 575.23937141 -115.93924444 567.90350082 -121.0390625 560.56640625 C-125.34781229 554.36945915 -129.66837304 548.18097455 -134 542 C-139.69853797 533.86852459 -145.371884 525.71976075 -151.0390625 517.56640625 C-155.34781242 511.36945898 -159.66841541 505.18100437 -164 499 C-169.64778428 490.93988999 -175.27716585 482.8671443 -180.8918457 474.78393555 C-184.28916017 469.89326006 -187.69315465 465.00756905 -191.11328125 460.1328125 C-199.67265768 447.91725151 -207.98140844 435.57714061 -216 423 C-216.52078125 422.18515137 -217.0415625 421.37030273 -217.578125 420.53076172 C-220.61452616 415.77417166 -223.62410012 411.00190578 -226.60986328 406.21337891 C-227.96116967 404.06182575 -229.3357855 401.92680569 -230.71484375 399.79296875 C-238.69321167 387.27872256 -238.69321167 387.27872256 -238 380 C-236.47095651 376.55965214 -236.11010395 375.79451267 -233 374 C-221.88779976 370.67025727 -210.07047976 369.83867491 -198.52133179 369.87974548 C-197.62257312 369.87889106 -196.72381446 369.87803663 -195.79782069 369.87715632 C-192.81620198 369.87552227 -189.83464078 369.88098858 -186.85302734 369.88647461 C-184.7037964 369.88675696 -182.55456536 369.88659782 -180.40533447 369.8860321 C-174.59205395 369.88574598 -168.77879419 369.89161279 -162.96551847 369.89860606 C-156.8823377 369.90487043 -150.79915641 369.90544584 -144.7159729 369.90663147 C-133.20611198 369.9097357 -121.6962606 369.91793684 -110.18640387 369.92798096 C-97.07880473 369.93917031 -83.97120513 369.94465966 -70.8636024 369.94967639 C-43.90906299 369.96012022 -16.95453203 369.97770206 10 370 C9.27713949 350.52559265 9.27713949 350.52559265 8.171875 331.0703125 C8.08903259 329.81574249 8.00619019 328.56117249 7.9208374 327.26858521 C6.5847303 307.28241061 5.03090411 287.31066509 3.5130043 267.33769226 C3.24667031 263.83116164 2.98095063 260.32458498 2.71542358 256.81799316 C-0.46092611 214.87381597 -3.67964046 172.93303641 -7 131 C-7.0559005 130.29383797 -7.11180099 129.58767593 -7.16939545 128.86011505 C-7.98230576 118.5937907 -8.80086238 108.32792941 -9.625 98.0625 C-9.77736115 96.16303116 -9.77736115 96.16303116 -9.93280029 94.22518921 C-10.97177983 81.30176951 -12.04062101 68.38203846 -13.19921875 55.46875 C-13.29432739 54.40313339 -13.38943604 53.33751678 -13.48742676 52.23960876 C-13.92634451 47.33010826 -14.37196315 42.42143435 -14.83251953 37.51391602 C-15.5363383 29.87017976 -16.16448979 22.23653682 -16.29296875 14.55859375 C-16.31254639 13.40544678 -16.33212402 12.2522998 -16.35229492 11.06420898 C-15.88603699 7.00876662 -14.47630311 4.279701 -11.38671875 1.6015625 C-7.23795688 -0.7827834 -4.74650856 -1.6158327 0 0 Z " fill="#FEFEFE" transform="translate(482,95)"/>
</svg>
